<mxfile host="app.diagrams.net" agent="Mozilla/5.0 (Windows NT 10.0; Win64; x64) AppleWebKit/537.36 (KHTML, like Gecko) Chrome/131.0.0.0 Safari/537.36" version="25.0.3">
  <diagram id="SjfkGviClR8BOT-9S4_E" name="Página-1">
    <mxGraphModel dx="1083" dy="791" grid="0" gridSize="10" guides="1" tooltips="1" connect="1" arrows="1" fold="1" page="0" pageScale="1" pageWidth="2339" pageHeight="3300" math="0" shadow="0">
      <root>
        <mxCell id="0" />
        <mxCell id="1" parent="0" />
        <mxCell id="HRm_fK4qUfykzisZ9i_X-1" style="edgeStyle=none;curved=1;rounded=0;orthogonalLoop=1;jettySize=auto;html=1;exitX=0.5;exitY=1;exitDx=0;exitDy=0;entryX=0.5;entryY=0;entryDx=0;entryDy=0;fontSize=12;startSize=8;endSize=8;endArrow=none;endFill=0;" parent="1" source="HRm_fK4qUfykzisZ9i_X-2" edge="1">
          <mxGeometry relative="1" as="geometry">
            <mxPoint x="-170" y="281" as="targetPoint" />
          </mxGeometry>
        </mxCell>
        <mxCell id="HRm_fK4qUfykzisZ9i_X-2" value="USUARIO" style="rounded=0;whiteSpace=wrap;html=1;" parent="1" vertex="1">
          <mxGeometry x="-230" y="-80" width="120" height="60" as="geometry" />
        </mxCell>
        <mxCell id="HRm_fK4qUfykzisZ9i_X-3" style="edgeStyle=none;curved=1;rounded=0;orthogonalLoop=1;jettySize=auto;html=1;exitX=0.5;exitY=1;exitDx=0;exitDy=0;entryX=0.5;entryY=0;entryDx=0;entryDy=0;fontSize=12;startSize=8;endSize=8;endArrow=none;endFill=0;" parent="1" source="HRm_fK4qUfykzisZ9i_X-4" edge="1">
          <mxGeometry relative="1" as="geometry">
            <mxPoint x="12" y="281" as="targetPoint" />
          </mxGeometry>
        </mxCell>
        <mxCell id="HRm_fK4qUfykzisZ9i_X-4" value="INTERFAZ DE USUARIO" style="rounded=0;whiteSpace=wrap;html=1;" parent="1" vertex="1">
          <mxGeometry x="-48" y="-80" width="120" height="60" as="geometry" />
        </mxCell>
        <mxCell id="HRm_fK4qUfykzisZ9i_X-5" style="edgeStyle=none;curved=1;rounded=0;orthogonalLoop=1;jettySize=auto;html=1;exitX=0.5;exitY=1;exitDx=0;exitDy=0;entryX=0.5;entryY=0;entryDx=0;entryDy=0;fontSize=12;startSize=8;endSize=8;endArrow=none;endFill=0;" parent="1" source="HRm_fK4qUfykzisZ9i_X-6" edge="1">
          <mxGeometry relative="1" as="geometry">
            <mxPoint x="194" y="281" as="targetPoint" />
          </mxGeometry>
        </mxCell>
        <mxCell id="HRm_fK4qUfykzisZ9i_X-6" value="INTERFAZ DE SERVICIO" style="rounded=0;whiteSpace=wrap;html=1;" parent="1" vertex="1">
          <mxGeometry x="134" y="-80" width="120" height="60" as="geometry" />
        </mxCell>
        <mxCell id="HRm_fK4qUfykzisZ9i_X-9" value="" style="endArrow=classic;html=1;rounded=0;fontSize=12;startSize=8;endSize=8;curved=1;" parent="1" edge="1">
          <mxGeometry width="50" height="50" relative="1" as="geometry">
            <mxPoint x="10" y="70" as="sourcePoint" />
            <mxPoint x="190" y="70" as="targetPoint" />
          </mxGeometry>
        </mxCell>
        <mxCell id="HRm_fK4qUfykzisZ9i_X-10" value="&lt;font style=&quot;font-size: 10px;&quot;&gt;Solicita creación del producto&lt;/font&gt;&lt;div&gt;&lt;span style=&quot;font-size: 10px;&quot;&gt;crearProducto()&lt;/span&gt;&lt;/div&gt;" style="text;html=1;align=center;verticalAlign=middle;resizable=0;points=[];autosize=1;strokeColor=none;fillColor=none;fontSize=16;" parent="1" vertex="1">
          <mxGeometry x="31" y="17" width="149" height="50" as="geometry" />
        </mxCell>
        <mxCell id="HRm_fK4qUfykzisZ9i_X-11" value="" style="endArrow=classic;html=1;rounded=0;fontSize=12;startSize=8;endSize=8;curved=1;dashed=1;" parent="1" edge="1">
          <mxGeometry width="50" height="50" relative="1" as="geometry">
            <mxPoint x="190" y="110" as="sourcePoint" />
            <mxPoint x="10" y="110" as="targetPoint" />
          </mxGeometry>
        </mxCell>
        <mxCell id="HRm_fK4qUfykzisZ9i_X-12" value="&lt;font style=&quot;font-size: 10px;&quot;&gt;Producto&lt;/font&gt;" style="text;html=1;align=center;verticalAlign=middle;resizable=0;points=[];autosize=1;strokeColor=none;fillColor=none;fontSize=16;" parent="1" vertex="1">
          <mxGeometry x="75" y="80" width="60" height="30" as="geometry" />
        </mxCell>
        <mxCell id="HRm_fK4qUfykzisZ9i_X-13" value="" style="endArrow=classic;html=1;rounded=0;fontSize=12;startSize=8;endSize=8;curved=1;dashed=1;" parent="1" edge="1">
          <mxGeometry width="50" height="50" relative="1" as="geometry">
            <mxPoint x="10" y="140" as="sourcePoint" />
            <mxPoint x="-170" y="140" as="targetPoint" />
          </mxGeometry>
        </mxCell>
        <mxCell id="HRm_fK4qUfykzisZ9i_X-14" value="&lt;font style=&quot;font-size: 10px;&quot;&gt;Producto&lt;/font&gt;" style="text;html=1;align=center;verticalAlign=middle;resizable=0;points=[];autosize=1;strokeColor=none;fillColor=none;fontSize=16;" parent="1" vertex="1">
          <mxGeometry x="-105" y="110" width="60" height="30" as="geometry" />
        </mxCell>
        <mxCell id="HRm_fK4qUfykzisZ9i_X-15" value="" style="endArrow=classic;html=1;rounded=0;fontSize=12;startSize=8;endSize=8;curved=1;" parent="1" edge="1">
          <mxGeometry width="50" height="50" relative="1" as="geometry">
            <mxPoint x="-170" y="39.43000000000001" as="sourcePoint" />
            <mxPoint x="10" y="39.43000000000001" as="targetPoint" />
          </mxGeometry>
        </mxCell>
        <mxCell id="HRm_fK4qUfykzisZ9i_X-16" value="&lt;font style=&quot;font-size: 10px;&quot;&gt;Pulsar en &quot;Añadir producto&quot;&lt;/font&gt;" style="text;html=1;align=center;verticalAlign=middle;resizable=0;points=[];autosize=1;strokeColor=none;fillColor=none;fontSize=16;" parent="1" vertex="1">
          <mxGeometry x="-145" y="9.430000000000007" width="141" height="31" as="geometry" />
        </mxCell>
      </root>
    </mxGraphModel>
  </diagram>
</mxfile>
